<?xml version="1.0" encoding="iso-8859-1"?>

<!DOCTYPE svg PUBLIC "-//W3C//DTD SVG 1.1//EN" "http://www.w3.org/Graphics/SVG/1.1/DTD/svg11.dtd">
<!-- Uploaded to: SVG Repo, www.svgrepo.com, Generator: SVG Repo Mixer Tools -->
<svg height="800px" width="800px" version="1.1" id="_x36_" xmlns="http://www.w3.org/2000/svg" xmlns:xlink="http://www.w3.org/1999/xlink" 
	 viewBox="0 0 512 512"  xml:space="preserve">
<g>
	<g>
		<path style="fill:#686766;" d="M57.666,180.554c0,24.604-12.782,166.02-12.782,181.83c0,24.61-10.41,54.688-17.848,43.746
			c-7.431-10.936-29.743-51.951-26.765-106.632c2.973-54.682,39.404-105.004,46.984-118.944
			C56.18,164.143,57.666,165.264,57.666,180.554z"/>
		<polygon style="fill:#4D4948;" points="140.611,456.018 140.611,487.656 98.228,512 96.866,496.178 77.718,496.178 
			85.929,480.361 70.887,475.488 111.902,460.885 111.902,442.629 140.611,442.629 		"/>
		<path style="fill:#686766;" d="M267.995,180.554c0,24.604,12.794,166.02,12.794,181.83c0,24.61,10.397,54.688,17.835,43.746
			c7.437-10.936,29.743-51.951,26.765-106.632c-2.973-54.682-39.404-105.004-46.984-118.944
			C269.481,164.143,267.995,165.264,267.995,180.554z"/>
		<polygon style="fill:#4D4948;" points="185.05,456.018 185.05,487.656 227.433,512 228.801,496.178 247.943,496.178 
			239.737,480.361 254.78,475.488 213.765,460.885 213.765,442.629 185.05,442.629 		"/>
		<g>
			<path style="fill:#FFFFFF;" d="M258.638,203.796c-23.241-73.823-13.667-80.666-92.965-71.093
				c-79.291-9.574-69.724-2.73-92.965,71.093C57.92,250.761,32.226,331.613,55.455,394.537c3.406,4.124,7.184,7.951,11.357,11.469
				c8.701,7.319,31.416,31.57,34.147,37.038c6.96,13.915,51.956,19.136,51.956,1.368c0-11.023,2.998-7.177,9.915-7.177
				c6.917,0,9.915-3.846,9.915,7.177c0,17.767,44.996,12.546,51.956-1.368c2.738-5.468,25.446-29.719,34.147-37.038
				c7.227-6.094,13.265-13.092,18.244-21.018C288.468,328.913,272.485,247.782,258.638,203.796z"/>
			<path style="fill:#686766;" d="M270.726,162.781c-19.141-32.809-23.606-39.466-34.79-96.526C227.761,24.573,203.25,0,162.83,0
				c-40.42,0-60.652,25.644-73.105,66.256c-17.018,55.511-21.124,67.81-34.79,96.526c-18.324,38.475-27.347,82.028-25.917,140.642
				c0.96,39.392,8.577,69.476,26.437,91.113c-23.229-62.924,2.465-143.776,17.253-190.741
				c23.241-73.823,13.673-80.666,92.965-71.093c79.298-9.574,69.724-2.73,92.965,71.093c13.847,43.987,29.83,125.117,18.455,181.192
				c12.967-20.659,18.733-47.665,19.55-81.564C298.073,244.809,292.196,199.584,270.726,162.781z"/>
		</g>
		<path style="fill:#322726;" d="M236.43,57.133c0,0,21.879,6.688,43.746,28.561c4.868,4.861-10.323,5.468-47.517,5.994
			c-17.766,0.254-36.946-3.567-20.535-19.971C217.587,55.313,227.315,43.763,236.43,57.133z"/>
		<path style="fill:#F5C631;" d="M221.723,128.603c-14.38-4.384-41.015-16.411-56.05-16.411c-15.042,0-42.067,10.887-56.056,16.411
			c-15.99,6.311-9.568,12.305,4.106,17.773c13.673,5.468,51.95,6.83,51.95,6.83s38.284-1.362,51.951-6.83
			C231.297,140.909,239.465,134.004,221.723,128.603z"/>
		<path style="fill:#F39D7B;" d="M98.494,71.575c0,0,3.641-12.856,9.716-16.404c6.081-3.542-3.034,11.97,34.029,45.219
			C146.5,103.047,112.465,93.293,98.494,71.575z"/>
	</g>
	<path style="opacity:0.11;fill:#322726;" d="M325.389,299.498c-2.632-48.408-31.447-93.343-43.294-112.701
		c-3.183-8.391-6.923-16.392-11.37-24.015c-15.847-27.161-21.643-36.481-29.508-71.223c30.914-0.52,43.43-1.399,38.959-5.864
		c-21.867-21.872-43.746-28.561-43.746-28.561c-1.288-1.889-2.588-3.226-3.883-4.18C222.045,19.414,198.729,0,162.83,0
		c-0.278,0-0.539,0.03-0.817,0.03v437.155c0.278,0.013,0.526,0.05,0.817,0.05c6.917,0,9.915-3.846,9.915,7.177
		c0,6.019,5.208,9.344,12.305,10.645v0.96v31.638L227.433,512l1.368-15.822h19.142l-8.206-15.817l15.042-4.873l-41.014-14.603
		v-9.314c5.14-2.167,9.209-5.078,10.936-8.527c2.738-5.468,25.446-29.719,34.147-37.038c7.227-6.094,13.265-13.092,18.244-21.018
		c1.696-2.707,3.257-5.53,4.712-8.453c2.793,20.318,10.781,38.482,16.82,29.595C306.061,395.193,328.368,354.179,325.389,299.498z"
		/>
</g>
</svg>